PathFileType	4	(X/Y/Z)	static.trc
DataRate	CameraRate	NumFrames	NumMarkers	Units	OrigDataRate	OrigDataStartFrame	OrigNumFrames
250.000000	250.000000	4	55	mm	250.000000	485	647
Frame#	Time	C7			RSH			LSH			MAN			T7			LARM			LELB			LFOREARM			LWR			RARM			RELB			RFOREARM			RWR			RASI			LASI			SACR			P1			P2			P3			LTHLP			LTHLD			LTHAP			LTHAD			LLEPI			LPAT			LMEPI			LTIAP			LTIAD			LTILAT			LLMAL			LMMAL			LHEEL			LMFS			LMFL			LP1MT			LTOE			LP5MT			RTHLP			RTHLD			RTHAP			RTHAD			RLEPI			RPAT			RMEPI			RTIAP			RTIAD			RTILAT			RLMAL			RMMAL			RHEEL			RMFS			RMFL			RP1MT			RTOE			RP5MT			
		X1	Y1	Z1	X2	Y2	Z2	X3	Y3	Z3	X4	Y4	Z4	X5	Y5	Z5	X6	Y6	Z6	X7	Y7	Z7	X8	Y8	Z8	X9	Y9	Z9	X10	Y10	Z10	X11	Y11	Z11	X12	Y12	Z12	X13	Y13	Z13	X14	Y14	Z14	X15	Y15	Z15	X16	Y16	Z16	X17	Y17	Z17	X18	Y18	Z18	X19	Y19	Z19	X20	Y20	Z20	X21	Y21	Z21	X22	Y22	Z22	X23	Y23	Z23	X24	Y24	Z24	X25	Y25	Z25	X26	Y26	Z26	X27	Y27	Z27	X28	Y28	Z28	X29	Y29	Z29	X30	Y30	Z30	X31	Y31	Z31	X32	Y32	Z32	X33	Y33	Z33	X34	Y34	Z34	X35	Y35	Z35	X36	Y36	Z36	X37	Y37	Z37	X38	Y38	Z38	X39	Y39	Z39	X40	Y40	Z40	X41	Y41	Z41	X42	Y42	Z42	X43	Y43	Z43	X44	Y44	Z44	X45	Y45	Z45	X46	Y46	Z46	X47	Y47	Z47	X48	Y48	Z48	X49	Y49	Z49	X50	Y50	Z50	X51	Y51	Z51	X52	Y52	Z52	X53	Y53	Z53	X54	Y54	Z54	X55	Y55	Z55	

486	1.94	-693.1840820312502	1569.191528320313	309.3181762695314	-648.769958496094	1559.198486328126	473.4845275878909	-683.8460083007815	1553.938476562501	153.3311614990235	-536.1534423828127	1484.22021484375	306.4050903320314	-744.2305297851565	1373.71875	316.1621398925782	-703.1522216796877	1375.86083984375	36.63055801391603	-721.8156738281252	1251.127075195313	-20.15206336975098	-674.4971313476565	1143.125366210938	-106.819190979004	-653.1857910156252	1019.184692382813	-167.6643066406251	-667.6127929687502	1389.876953125	585.0903930664065	-697.2247314453127	1265.323120117188	649.7310180664065	-654.9820556640627	1155.783813476563	734.384948730469	-636.7457275390627	1033.82861328125	798.190307617188	-530.485778808594	1086.690673828125	399.972106933594	-554.710388183594	1090.62255859375	184.226547241211	-727.0052490234377	1134.488403320313	316.767547607422	-747.442810058594	1108.5166015625	265.5262145996095	-738.3508911132815	1104.759033203125	371.5874328613282	-772.1174926757817	1050.831176757813	318.7348632812501	-663.9610595703127	798.3931274414067	105.6787185668946	-660.0423583984377	684.2386474609377	111.9141464233399	-531.2776489257815	783.420776367188	172.0430145263672	-551.585388183594	674.377380371094	178.4434661865235	-654.7912597656252	558.6479492187502	122.1204833984376	-574.861755371094	559.8042602539065	183.9497375488282	-656.0194091796877	541.6616821289065	248.0352172851564	-640.790222167969	381.4069213867189	188.2677001953126	-658.1414184570315	243.5024261474611	181.4503784179688	-692.2680664062502	320.7831420898439	108.2470016479493	-701.4382934570315	102.6474914550782	121.7558517456055	-680.3699340820315	113.0027923583985	214.6536560058595	-765.3894042968752	61.45751571655276	166.087387084961	-600.3110351562502	94.47125244140628	169.7103576660157	-628.5427856445315	69.62245941162112	107.3314743041993	-553.1849365234377	46.31849288940431	202.7978057861329	-497.5697021484377	58.29690551757815	164.2130432128907	-576.6043090820315	35.92124176025392	78.55320739746097	-630.9431152343752	825.6167602539067	513.4147949218752	-634.0825195312502	711.873718261719	508.2700805664065	-526.6377563476565	782.8791503906255	424.0291748046877	-547.3883056640627	686.5419921875002	420.3959045410159	-650.915466308594	560.054382324219	489.1790466308596	-582.4464111328127	550.8742675781252	426.1613769531252	-682.961853027344	544.1060180664065	365.710174560547	-656.9794921875002	344.0071105957032	419.3805236816409	-672.191101074219	218.0503540039064	414.075866699219	-692.7720336914065	338.8415832519532	506.0791625976565	-694.924743652344	103.249870300293	481.8690490722659	-684.0216064453127	112.8627929687501	387.6496582031252	-765.3767089843752	59.45843887329104	441.1557617187502	-592.3032226562502	97.86367797851568	432.3189392089846	-629.211608886719	69.66189575195315	491.0987548828127	-554.1619873046877	49.04690551757815	388.6390075683596	-493.7138366699221	58.64603805541995	426.2202148437502	-569.810729980469	40.63236618041994	515.9431762695315	
487	1.944	-693.2052001953127	1569.201904296876	309.4547424316407	-648.822448730469	1559.166381835938	473.5342407226565	-683.8845825195315	1553.939697265626	153.3106231689454	-536.1895141601565	1484.204467773438	306.4713439941407	-744.282409667969	1373.785034179688	316.1951293945314	-703.1820068359377	1375.886474609375	36.66159439086915	-721.8630371093752	1251.143310546875	-20.16516494750977	-674.6092529296877	1143.141967773438	-106.5248947143555	-653.233581542969	1019.217346191407	-167.5201568603516	-667.6102294921877	1389.876098632813	585.1755371093752	-697.2852783203127	1265.306518554688	649.7454833984377	-654.9727172851565	1155.794921875	734.4844360351565	-636.7270507812502	1033.84228515625	798.2653198242192	-530.4866333007815	1086.677612304688	399.964782714844	-554.8045043945315	1090.600219726563	184.3049926757813	-727.0850219726565	1134.491821289063	316.8395080566407	-747.483581542969	1108.57373046875	265.547821044922	-738.4722900390627	1104.905151367188	371.4269409179689	-772.1397094726567	1050.801635742188	318.777069091797	-663.976013183594	798.4102172851567	105.6894836425782	-660.061950683594	684.2502441406252	111.9236297607422	-531.242858886719	783.4018554687505	171.9096984863282	-551.6685791015627	674.369079589844	178.6027069091797	-654.8238525390627	558.6236572265627	122.1708602905274	-574.860290527344	559.8018188476565	184.0085754394532	-656.0120849609377	541.627136230469	248.015106201172	-640.7907714843752	381.4109191894532	188.2624053955079	-658.1170043945315	243.5183563232423	181.3409271240235	-692.2625732421877	320.8360290527345	108.2498474121094	-701.4451904296877	102.7143707275391	121.818946838379	-680.2276611328127	113.0784454345704	214.8231048583986	-765.3702392578127	61.45404434204104	166.0720367431641	-600.2503051757815	94.47360992431643	169.5791015625001	-628.547058105469	69.56568145751956	107.2622833251954	-553.190368652344	46.31138610839845	202.7656097412111	-497.5248107910159	58.34926986694339	164.0997009277344	-576.722839355469	35.90640258789064	78.692008972168	-630.956726074219	825.6256713867192	513.4112548828127	-634.0404052734377	711.858825683594	508.359313964844	-526.6565551757815	782.8713989257817	424.123718261719	-547.301696777344	686.428405761719	420.0883789062502	-650.8875732421877	560.0467529296877	489.2528381347659	-582.4912109375002	550.9275512695315	426.1288146972659	-682.9665527343752	544.104675292969	365.746307373047	-656.975769042969	344.0336303710939	419.3608093261721	-672.3732910156252	218.0837860107423	414.1174621582034	-692.7495117187502	338.8474426269532	506.1039733886721	-694.8619384765627	103.3182525634766	481.9696350097659	-683.8880615234377	112.8802032470704	387.5630187988284	-765.274108886719	59.63309097290042	441.3217773437502	-592.343933105469	97.90842437744146	432.3358459472659	-629.220642089844	69.66058349609378	491.0814208984377	-554.1752929687502	49.1001892089844	388.8256530761721	-493.6824340820315	58.69395828247073	426.2798156738284	-569.8150634765627	40.61296463012697	515.948181152344	
488	1.948	-693.3447875976565	1569.213623046876	309.8783264160157	-648.8372802734377	1559.167236328126	473.5684509277346	-683.9226074218752	1553.939086914063	153.3495025634766	-536.2640380859377	1484.27099609375	306.6163330078126	-744.298767089844	1373.69677734375	316.1851196289064	-703.1834716796877	1375.852783203125	36.67433166503908	-721.926696777344	1251.085693359375	-20.06962966918946	-674.6433715820315	1143.13427734375	-106.5170516967774	-653.3062133789065	1019.227783203125	-167.5056610107422	-667.6791992187502	1389.889282226563	585.165954589844	-697.382507324219	1265.237915039063	649.766052246094	-654.971618652344	1155.745239257813	734.4483642578127	-636.7216796875002	1033.81689453125	798.243041992188	-530.5174560546877	1086.696166992188	400.021423339844	-554.810485839844	1090.63623046875	184.3237915039063	-727.0330810546877	1134.460083007813	316.904510498047	-747.4727172851565	1108.484619140625	265.5878906250001	-738.3060302734377	1104.787963867188	371.6707153320314	-772.3901367187505	1050.813720703125	319.1303710937501	-664.0032348632815	798.3933105468755	105.7132263183594	-660.096862792969	684.2680664062502	111.9031524658204	-531.319030761719	783.4315795898442	172.1013793945313	-551.6416625976565	674.3453369140627	178.4375305175782	-654.858093261719	558.6228027343752	122.2333068847657	-574.898132324219	559.7967529296877	183.9657897949219	-656.0675048828127	541.6093750000002	247.9967498779298	-640.836120605469	381.4259033203126	188.2879943847657	-658.0991821289065	243.5019836425782	181.3968048095704	-692.2712402343752	320.822967529297	108.2407455444337	-701.4263305664065	102.6377258300782	121.7583007812501	-680.2876586914065	113.0009078979493	214.6848907470704	-765.383728027344	61.51004028320315	166.1334991455079	-600.2893066406252	94.45792388916018	169.6498107910157	-628.5384521484377	69.56963348388675	107.2897644042969	-553.2070922851565	46.30613327026369	202.7988891601564	-497.4775390625002	58.28379821777347	164.1634979248047	-576.7617187500002	35.93014526367189	78.64908599853518	-630.9714965820315	825.6237792968755	513.4607543945315	-634.107360839844	711.880554199219	508.3612365722659	-526.653991699219	782.8838500976567	424.062194824219	-547.4134521484377	686.4616699218752	420.2057800292971	-650.8919067382815	560.0433349609377	489.2586059570315	-582.4898681640627	550.8936157226565	426.2048034667971	-682.9764404296877	544.0916137695315	365.7479858398439	-656.9783325195315	344.0222167968751	419.3518981933596	-672.2410278320315	218.0404510498048	413.9981689453127	-692.779724121094	338.842254638672	506.0875549316409	-695.0068359375002	103.1825256347657	481.8216247558596	-684.0268554687502	112.8671188354493	387.6618652343752	-765.331970214844	59.65462112426761	441.2228088378909	-592.3640136718752	97.89547729492193	432.2219543457034	-629.280456542969	69.62014007568362	490.9812927246096	-554.167907714844	49.04533004760745	388.7145690917971	-493.7419128417971	58.66691207885745	426.2519531250002	-569.7877197265627	40.6446990966797	515.993591308594	
489	1.952	-693.3005981445315	1569.214843750001	309.4753417968751	-648.8532714843752	1559.157958984376	473.5383605957034	-683.945495605469	1553.957763671876	153.4080505371094	-536.2586669921877	1484.297973632813	306.6744079589845	-744.3326416015627	1373.761108398438	316.2513732910157	-703.226257324219	1375.858154296875	36.74576950073244	-721.9653320312502	1251.048461914063	-19.92046546936036	-674.7712402343752	1143.163696289063	-106.4402084350587	-653.361267089844	1019.229431152344	-167.4666290283204	-667.767517089844	1389.87841796875	585.1572265625002	-697.308288574219	1265.27001953125	649.798522949219	-655.004089355469	1155.733032226563	734.427673339844	-636.735534667969	1033.797119140625	798.2406616210942	-530.5208740234377	1086.689453125	400.0122985839846	-554.814147949219	1090.64208984375	184.3012390136719	-727.0434570312502	1134.408935546875	316.9376525878907	-747.4973754882815	1108.479248046875	265.6173095703126	-738.4277343750002	1104.848266601563	371.664276123047	-772.2111206054692	1050.758178710938	319.059295654297	-664.006042480469	798.3889770507817	105.7103271484376	-660.0964355468752	684.2656250000002	111.8984069824219	-531.348083496094	783.401000976563	172.025863647461	-551.6890258789065	674.3601684570315	178.550033569336	-654.8809814453127	558.6965332031252	122.2584075927735	-574.9007568359377	559.830505371094	183.9997253417969	-656.0891113281252	541.6440429687502	248.0666656494142	-640.7917480468752	381.4209289550782	188.2263946533204	-658.1741333007815	243.4974670410157	181.5296783447266	-692.294128417969	320.8302612304689	108.2887344360352	-701.470886230469	102.635353088379	121.7980270385743	-680.394470214844	113.0510635375977	214.6735992431642	-765.3760375976565	61.46575927734378	166.0491790771485	-600.2805786132815	94.46366119384768	169.596176147461	-628.553161621094	69.59133148193362	107.2890853881837	-553.2268066406252	46.26869583129884	202.7617950439454	-497.4873352050784	58.33911132812503	164.1474151611329	-576.6820068359377	35.87863922119142	78.65223693847659	-630.985534667969	825.6292114257817	513.4471435546877	-634.1167602539065	711.854431152344	508.3362426757815	-526.681091308594	782.8786621093755	424.0908508300784	-547.418151855469	686.431091308594	420.2237548828127	-650.8992919921877	560.0103149414065	489.2052001953127	-582.4810180664065	550.9109497070315	426.1694946289065	-682.986755371094	544.0871582031252	365.7556457519532	-656.9979248046877	344.0359497070314	419.4010925292971	-672.3320312500002	217.9844818115236	414.0785217285159	-692.757263183594	338.8319091796876	506.0959472656252	-695.047546386719	103.2116928100587	481.7851257324221	-683.8735961914065	112.889633178711	387.5171203613284	-765.315368652344	59.5307312011719	441.1076965332034	-592.3818359375002	97.92931365966803	432.2729797363284	-629.2067871093752	69.62193298339847	491.1123046875002	-554.1936645507815	48.98944473266604	388.7043457031252	-493.7167663574221	58.62972259521487	426.2003173828127	-569.8330688476565	40.61890411376955	515.9365844726565	
